<svg version="1.1" id="feelings" xmlns="http://www.w3.org/2000/svg" xmlns:xlink="http://www.w3.org/1999/xlink" x="0px" y="0px"
    	 viewBox="0 0 500 500" xml:space="preserve">
    <style type="text/css">
    	.st0{fill:#FFFFFF;stroke:#000000;stroke-width:2;stroke-miterlimit:10;}
    	.st1{opacity:0.4;}
    	.st2{fill:#A67C52;}
    	.st3{fill:#662D91;}
    	.st4{fill:#FBB03B;}
    	.st5{fill:#0071BC;}
    	.st6{fill:#D9E021;}
    	.st7{fill:#FF0000;}
    	.st8{fill:#00FF00;}
    	.st9{opacity:0.4;fill:#FFFFFF;stroke:#000000;stroke-miterlimit:10;}
    	.st10{fill:none;stroke:#000000;stroke-width:2;stroke-miterlimit:10;}
    	.st11{fill:none;stroke:#000000;stroke-width:0.25;stroke-linecap:round;stroke-linejoin:round;}
    	.st12{fill:none;stroke:#000000;stroke-width:0.2475;stroke-linecap:round;stroke-linejoin:round;}
    	.st13{fill:none;stroke:#000000;stroke-width:0.248;stroke-linecap:round;stroke-linejoin:round;}
    	.st14{fill:none;stroke:#000000;stroke-miterlimit:10;}
    	.st15{stroke:#000000;stroke-width:0.5639;stroke-miterlimit:10;}
    	.st16{stroke:#000000;stroke-width:0.5646;stroke-miterlimit:10;}
    	.st17{stroke:#000000;stroke-width:0.5626;stroke-miterlimit:10;}
    	.st18{stroke:#000000;stroke-width:0.5649;stroke-miterlimit:10;}
    	.st19{stroke:#000000;stroke-width:0.5632;stroke-miterlimit:10;}
    	.st20{stroke:#000000;stroke-width:0.5641;stroke-miterlimit:10;}
    	.st21{stroke:#000000;stroke-width:0.5633;stroke-miterlimit:10;}
    	.st22{stroke:#000000;stroke-width:0.5647;stroke-miterlimit:10;}
    	.st23{stroke:#000000;stroke-width:0.5654;stroke-miterlimit:10;}
    	.st24{stroke:#000000;stroke-width:0.5631;stroke-miterlimit:10;}
    	.st25{stroke:#000000;stroke-width:0.5657;stroke-miterlimit:10;}
    	.st26{stroke:#000000;stroke-width:0.5637;stroke-miterlimit:10;}
    	.st27{stroke:#000000;stroke-width:0.565;stroke-miterlimit:10;}
    	.st28{stroke:#000000;stroke-width:0.5635;stroke-miterlimit:10;}
    	.st29{stroke:#000000;stroke-width:0.5602;stroke-miterlimit:10;}
    	.st30{stroke:#000000;stroke-width:0.5623;stroke-miterlimit:10;}
    	.st31{stroke:#000000;stroke-width:0.5619;stroke-miterlimit:10;}
    	.st32{stroke:#000000;stroke-width:0.5616;stroke-miterlimit:10;}
    	.st33{stroke:#000000;stroke-width:0.5638;stroke-miterlimit:10;}
    	.st34{stroke:#000000;stroke-width:0.5597;stroke-miterlimit:10;}
    	.st35{stroke:#000000;stroke-width:0.5594;stroke-miterlimit:10;}
    	.st36{stroke:#000000;stroke-width:0.5622;stroke-miterlimit:10;}
    	.st37{stroke:#000000;stroke-width:0.5606;stroke-miterlimit:10;}
    	.st38{stroke:#000000;stroke-width:0.5628;stroke-miterlimit:10;}
    	.st39{stroke:#000000;stroke-width:0.5642;stroke-miterlimit:10;}
    	.st40{stroke:#000000;stroke-width:0.5615;stroke-miterlimit:10;}
    	.st41{stroke:#000000;stroke-width:0.5685;stroke-miterlimit:10;}
    	.st42{stroke:#000000;stroke-width:0.6079;stroke-miterlimit:10;}
    	.st43{stroke:#000000;stroke-width:0.5858;stroke-miterlimit:10;}
    	.st44{fill:none;stroke:#000000;stroke-width:0.7708;stroke-miterlimit:10;}
    	.st45{stroke:#000000;stroke-miterlimit:10;}
    	.st46{stroke:#000000;stroke-width:0.9967;stroke-miterlimit:10;}
    	.st47{font-family:'Roboto-Medium';}
    	.st48{font-size:8px;}
    	.st49{fill:none;}
    </style>
    <circle id="Outer_Circle_1_" class="st0" cx="250.06" cy="250.08" r="238.94"/>
    <g class="st1">
    	<path class="st2" d="M248.62,248.03c2.13,3.03,1.38,31.06,1.38-236.89c-51.16,0.01-98.55,16.11-137.42,43.5L248.62,248.03z"/>
    	<path class="st3" d="M249.75,249.86L112.33,54.49C72.52,82.55,41.66,122.46,24.9,169.1L249.75,249.86z"/>
    	<path class="st4" d="M249.75,249.86L24.9,169.1c-38.16,106.16,3.05,226.77,102.72,286.2L249.75,249.86z"/>
    	<path class="st5" d="M249.75,249.86L127.61,455.3c65.11,38.82,143.75,43.64,211.51,16.31L249.75,249.86z"/>
    	<path class="st6" d="M249.75,249.86l89.38,221.75c45.87-18.5,84.68-50.82,111.28-91.81L249.75,249.86z"/>
    	<path class="st7" d="M251.85,251.22L450.4,379.8c53.85-83.01,51.62-193.32-10.63-274.79C232.71,262.85,248.68,249.17,251.85,251.22
    		z"/>
    	<path class="st8" d="M250.41,250.43l190.02-144.85c-43.66-57.14-112.5-94.01-189.97-94.01C250.36,11.57,250.41,3.18,250.41,250.43z
    		"/>
    </g>
    <path class="st9" d="M165.24,107.43C42.43,180.61,63.46,365.09,199.9,408.3c104.53,33.1,211.9-42.62,215.97-151.94
    	C420.76,124.94,277.93,40.28,165.24,107.43z M250,342.5c-51.09,0-92.5-41.41-92.5-92.5c0-51.09,41.41-92.5,92.5-92.5
    	s92.5,41.41,92.5,92.5C342.5,301.09,301.09,342.5,250,342.5z"/>
    <circle id="Outer_Circle" class="st10" cx="250.06" cy="250.08" r="238.94"/>
    <g id="Small_Slice_Lines">
    	<line class="st11" x1="231.7" y1="11.7" x2="237.3" y2="84.62"/>
    	<line class="st11" x1="195.54" y1="17.29" x2="212.2" y2="88.48"/>
    	<line class="st11" x1="160.66" y1="28.33" x2="187.99" y2="96.15"/>
    	<line class="st11" x1="165.24" y1="107.43" x2="127.87" y2="44.56"/>
    	<line class="st11" x1="144.48" y1="122.05" x2="97.94" y2="65.61"/>
    	<line class="st11" x1="126.19" y1="139.66" x2="71.57" y2="90.99"/>
    	<line class="st11" x1="110.78" y1="159.84" x2="49.39" y2="120.09"/>
    	<line class="st11" x1="98.62" y1="182.14" x2="31.91" y2="152.23"/>
    	<line class="st11" x1="90.03" y1="206.04" x2="19.54" y2="186.67"/>
    	<line class="st11" x1="85.22" y1="230.98" x2="12.58" y2="222.59"/>
    	<line class="st11" x1="84.24" y1="256.35" x2="11.18" y2="259.15"/>
    	<line class="st11" x1="87.12" y1="281.59" x2="15.37" y2="295.5"/>
    	<line class="st11" x1="93.82" y1="306.09" x2="25.07" y2="330.79"/>
    	<line class="st11" x1="104.2" y1="329.28" x2="40.04" y2="364.18"/>
    	<line class="st11" x1="118.03" y1="350.6" x2="59.92" y2="394.89"/>
    	<line class="st11" x1="134.92" y1="369.57" x2="84.27" y2="422.2"/>
    	<line class="st11" x1="154.51" y1="385.76" x2="112.5" y2="445.49"/>
    	<line class="st11" x1="176.34" y1="398.78" x2="143.95" y2="464.18"/>
    	<line class="st11" x1="177.89" y1="477.86" x2="199.9" y2="408.3"/>
    	<line class="st11" x1="213.52" y1="486.2" x2="224.65" y2="414.09"/>
    	<line class="st11" x1="250" y1="416.02" x2="250" y2="489"/>
    	<line class="st11" x1="286.48" y1="486.2" x2="275.35" y2="414.11"/>
    	<line class="st11" x1="322.11" y1="477.86" x2="300.11" y2="408.33"/>
    	<line class="st11" x1="356.05" y1="464.18" x2="323.69" y2="398.82"/>
    	<line class="st11" x1="345.53" y1="385.82" x2="387.5" y2="445.49"/>
    	<line class="st11" x1="365.13" y1="369.63" x2="415.73" y2="422.2"/>
    	<line class="st11" x1="440.08" y1="394.89" x2="382.05" y2="350.65"/>
    	<line class="st11" x1="395.89" y1="329.33" x2="459.96" y2="364.18"/>
    	<line class="st11" x1="474.93" y1="330.79" x2="406.29" y2="306.13"/>
    	<line class="st11" x1="413" y1="281.61" x2="484.63" y2="295.5"/>
    	<line class="st11" x1="488.82" y1="259.15" x2="415.87" y2="256.36"/>
    	<line class="st11" x1="414.9" y1="230.96" x2="487.42" y2="222.59"/>
    	<line class="st11" x1="410.07" y1="206.01" x2="480.46" y2="186.67"/>
    	<line class="st11" x1="401.47" y1="182.09" x2="468.09" y2="152.23"/>
    	<line class="st12" x1="389.3" y1="159.79" x2="450" y2="120.48"/>
    	<line class="st13" x1="373.87" y1="139.61" x2="428" y2="91.37"/>
    	<line class="st11" x1="355.57" y1="121.99" x2="402.06" y2="65.61"/>
    	<line class="st11" x1="334.79" y1="107.38" x2="372.13" y2="44.56"/>
    	<line class="st11" x1="312.02" y1="96.11" x2="339.34" y2="28.33"/>
    	<line class="st11" x1="304.46" y1="17.29" x2="287.8" y2="88.45"/>
    	<line class="st11" x1="262.7" y1="84.61" x2="268.3" y2="11.7"/>
    </g>
    <path id="Middle_Circle" class="st14" d="M415.87,256.36c4.89-131.42-137.94-216.07-250.63-148.92
    	C42.43,180.61,63.46,365.09,199.9,408.3C304.43,441.4,411.8,365.67,415.87,256.36z"/>
    <g id="Medlim_Slice_Lines">
    	<path class="st15" d="M234.09,146.99c-28.44-184.1-26.97-174.64,1.79,11.59"/>
    	<path class="st16" d="M218.61,150.8c-55.96-176.82-53.73-169.78,3.48,11"/>
    	<path class="st17" d="M203.61,156.31c-82.35-166.32-78.39-158.33,5.31,10.72"/>
    	<path class="st18" d="M177.9,175.08C48.78,40.92,54.88,47.25,185.86,183.36"/>
    	<path class="st19" d="M166.98,186.72C18.88,73.83,26.67,79.76,176.53,194"/>
    	<path class="st20" d="M158.48,200.23c-163.08-88.68-155.95-84.8,10.25,5.58"/>
    	<path class="st21" d="M147.54,230.13c-182.56-35.4-173.53-33.65,11.77,2.28"/>
    	<path class="st22" d="M146.03,246.01c-186.43-7.15-176.78-6.78,11.54,0.44"/>
    	<path class="st23" d="M146.81,261.91c-185.01,21.36-176.44,20.37,11.3-1.3"/>
    	<path class="st24" d="M149.32,277.67c-179.27,49.26-170.36,46.82,11.54-3.17"/>
    	<path class="st25" d="M155.27,292.46c-170.19,76.3-161.96,72.61,10.3-4.62"/>
    	<path class="st26" d="M162.48,306.68c-155.81,100.9-148.83,96.38,9.87-6.39"/>
    	<path class="st27" d="M172.38,319.17c-138.8,123.7-132.69,118.25,8.56-7.63"/>
    	<path class="st28" d="M183.63,330.48c-118.47,143.65-112.36,136.24,7.51-9.11"/>
    	<path class="st29" d="M210.71,347.5c-71.11,176.43-63.73,158.12,4.73-11.73"/>
    	<path class="st30" d="M226.16,351.86c-42.32,180.83-40.22,171.88,2.75-11.77"/>
    	<path class="st31" d="M241.98,354.4c-14.23,185.35-13.47,175.45,0.93-12.16"/>
    	<path class="st32" d="M258.02,354.48c14.25,185.65,13.43,174.94-0.94-12.24"/>
    	<path class="st20" d="M273.74,351.43c42.4,181.2,40.34,172.39-2.65-11.34"/>
    	<path class="st33" d="M303.28,339.62c94.99,159.78,90.48,152.19-6-10.09"/>
    	<path class="st34" d="M316.96,331.19c113.29,137.37,116.34,141.07-8.05-9.76"/>
    	<path class="st35" d="M319.25,311.72C464.65,441.3,464.99,441.59,319.25,311.72z"/>
    	<path class="st36" d="M345.48,292.8c169.75,76.1,160.69,72.04-11.05-4.95"/>
    	<path class="st37" d="M351.27,277.83c179.3,49.27,168.87,46.41-12.03-3.31"/>
    	<path class="st37" d="M354.33,262.04c175.67,20.28,183.37,21.17-12.42-1.43"/>
    	<path class="st38" d="M354.41,246c186.4-7.14,175.68-6.73-11.97,0.46"/>
    	<path class="st34" d="M353.3,229.97c183.36-35.56,170.93-33.15-12.47,2.42"/>
    	<path class="st39" d="M348.04,214.79c175.53-63.04,166.29-59.72-10.95,3.93"/>
    	<path class="st35" d="M341.69,200.14c155.8-84.72,160.87-87.48-10.41,5.66"/>
    	<path class="st18" d="M322.12,175.07c129.4-134.46,122.72-127.51-7.97,8.29"/>
    	<path class="st40" d="M310.29,164.28c106.91-151.99,101.15-143.8-7.07,10.06"/>
    	<path class="st41" d="M295.76,157.57c85.33-172.35,76.81-155.14-4.71,9.52"/>
    	<path class="st42" d="M278.35,160.57l43.83-138.51C322.19,22.06,273.51,175.88,278.35,160.57z"/>
    	<path class="st43" d="M265.54,149.4c28.78-186.31,27.45-177.71-1.36,8.78"/>
    </g>
    <circle id="Inner_Circle" class="st44" cx="250" cy="250" r="92.5"/>
    <g id="Big_Slice_Lines">
    	<path class="st45" d="M250,130.5C250,289.65,250,290.02,250,130.5C250-28.65,250-29.02,250,130.5z"/>
    	<path class="st45" d="M181.25,152.26c128.33,182.44,60.61,86.17-68.75-97.74L181.25,152.26z"/>
    	<path class="st45" d="M137.53,209.61c209.95,75.4,99.12,35.6-112.47-40.39L137.53,209.61z"/>
    	<path class="st45" d="M188.93,352.72c113.98-191.73,53.84-90.56-61.07,102.72L188.93,352.72z"/>
    	<path class="st45" d="M294.67,360.84c-83.37-206.85-39.41-97.77,44.67,110.84L294.67,360.84z"/>
    	<path class="st45" d="M350.3,314.96C216.72,228.45,216.41,228.25,350.3,314.96C483.89,401.47,484.2,401.66,350.3,314.96z"/>
    	<path class="st46" d="M344.72,177.79C218.57,273.96,218.28,274.18,344.72,177.79C470.88,81.63,471.17,81.41,344.72,177.79z"/>
    </g>
    <text transform="matrix(0.3017 0.9534 -0.9534 0.3017 227.4345 186.1547)" class="st47 st48">Bad</text>
    <text transform="matrix(0.7953 0.6062 -0.6062 0.7953 186.0523 204.1721)" class="st47 st48">Surprised</text>
    <text transform="matrix(0.9411 -0.3381 0.3381 0.9411 182.4713 276.5443)" class="st47 st48">Happy</text>
    <text transform="matrix(0.0765 -0.9971 0.9971 0.0765 247.16 317.894)" class="st47 st48">Sad</text>
    <text transform="matrix(0.6362 0.7715 -0.7715 0.6362 275.339 284.273)" class="st47 st48">Disgusted</text>
    <text transform="matrix(0.9993 -0.0383 0.0383 0.9993 300.2249 249.779)" class="st47 st48">Angry</text>
    <text transform="matrix(0.4437 -0.8962 0.8962 0.4437 273.6968 207.9572)" class="st47 st48">Fearful</text>
    <g>
    	<g>

    			<rect x="232.27" y="110.89" transform="matrix(0.0767 -0.9971 0.9971 0.0767 122.1391 368.0862)" class="st49" width="55.1" height="14.41"/>
    		<text transform="matrix(0.0767 -0.9971 0.9971 0.0767 261.7368 130.838)" class="st47 st48">Scared</text>

    			<rect x="252.29" y="113.93" transform="matrix(0.228 -0.9737 0.9737 0.228 98.0851 365.982)" class="st49" width="55.1" height="14.41"/>
    		<text transform="matrix(0.228 -0.9737 0.9737 0.228 279.3408 135.9333)" class="st47 st48">Anxious</text>

    			<rect x="271.61" y="119.99" transform="matrix(0.374 -0.9274 0.9274 0.374 69.3135 357.0839)" class="st49" width="55.1" height="14.41"/>
    		<text transform="matrix(0.374 -0.9275 0.9275 0.374 296.0488 142.6387)" class="st47 st48">Insecure</text>

    			<rect x="289.77" y="128.94" transform="matrix(0.5111 -0.8595 0.8595 0.5111 38.1141 339.2928)" class="st49" width="55.1" height="14.41"/>
    		<text transform="matrix(0.5111 -0.8595 0.8595 0.5111 314.7343 146.1494)" class="st47 st48">Weak</text>

    			<rect x="306.36" y="140.54" transform="matrix(0.6363 -0.7714 0.7714 0.6363 7.4543 311.3129)" class="st49" width="55.1" height="14.41"/>
    		<text transform="matrix(0.6363 -0.7714 0.7714 0.6363 326.0883 161.781)" class="st47 st48">Rejected</text>

    			<rect x="320.99" y="154.55" transform="matrix(0.7466 -0.6652 0.6652 0.7466 -19.2983 272.8417)" class="st49" width="55.1" height="14.41"/>
    		<text transform="matrix(0.7466 -0.6652 0.6652 0.7466 335.2203 177.4935)" class="st47 st48">Threatened</text>

    			<rect x="333.3" y="170.62" transform="matrix(0.8394 -0.5435 0.5435 0.8394 -38.7023 224.6666)" class="st49" width="55.1" height="14.41"/>
    		<text transform="matrix(0.8394 -0.5435 0.5435 0.8394 348.3078 189.3956)" class="st47 st48">Let Down</text>

    			<rect x="343.02" y="188.39" transform="matrix(0.9125 -0.409 0.409 0.9125 -47.5851 168.6566)" class="st49" width="55.1" height="14.41"/>
    		<text transform="matrix(0.9125 -0.409 0.409 0.9125 353.8231 206.2671)" class="st47 st48">Humiliated</text>

    			<rect x="349.91" y="207.43" transform="matrix(0.9643 -0.2649 0.2649 0.9643 -43.3704 107.6501)" class="st49" width="55.1" height="14.41"/>
    		<text transform="matrix(0.9643 -0.2649 0.2649 0.9643 368.698 220.0396)" class="st47 st48">Bitter</text>

    			<rect x="353.81" y="227.3" transform="matrix(0.9934 -0.1146 0.1146 0.9934 -24.3598 45.2458)" class="st49" width="55.1" height="14.41"/>
    		<text transform="matrix(0.9934 -0.1146 0.1146 0.9934 373.8044 238.2856)" class="st47 st48">Mad</text>

    			<rect x="374.99" y="227.18" transform="matrix(0.0384 -0.9993 0.9993 0.0384 112.9728 626.8677)" class="st49" width="14.41" height="55.1"/>
    		<text transform="matrix(0.9993 0.0384 -0.0384 0.9993 362.1433 256.8591)" class="st47 st48">Aggressive</text>

    			<rect x="372.71" y="247.31" transform="matrix(0.1905 -0.9817 0.9817 0.1905 37.7329 595.4711)" class="st49" width="14.41" height="55.1"/>
    		<text transform="matrix(0.9817 0.1905 -0.1905 0.9817 360.9375 274.1178)" class="st47 st48">Frustrated</text>

    			<rect x="367.4" y="266.84" transform="matrix(0.3381 -0.9411 0.9411 0.3381 -29.1033 547.4114)" class="st49" width="14.41" height="55.1"/>
    		<text transform="matrix(0.9411 0.3381 -0.3381 0.9411 361.4209 292.73)" class="st47 st48">Distant</text>

    			<rect x="359.16" y="285.34" transform="matrix(0.4778 -0.8785 0.8785 0.4778 -83.5448 485.2486)" class="st49" width="14.41" height="55.1"/>
    		<text transform="matrix(0.8785 0.4778 -0.4778 0.8785 353.8241 309.3619)" class="st47 st48">Critical</text>

    			<rect x="348.2" y="302.37" transform="matrix(0.6063 -0.7953 0.7953 0.6063 -122.4364 412.5377)" class="st49" width="14.41" height="55.1"/>
    		<text transform="matrix(0.7953 0.6063 -0.6063 0.7953 334.8028 317.8477)" class="st47 st48">Disapproving</text>

    			<rect x="334.76" y="317.52" transform="matrix(0.7206 -0.6934 0.6934 0.7206 -143.708 333.5506)" class="st49" width="14.41" height="55.1"/>
    		<text transform="matrix(0.6934 0.7206 -0.7206 0.6934 324.1046 330.6747)" class="st47 st48">Disapponted</text>

    			<rect x="319.17" y="330.44" transform="matrix(0.8179 -0.5753 0.5753 0.8179 -146.531 252.9357)" class="st49" width="14.41" height="55.1"/>
    		<text transform="matrix(0.5753 0.818 -0.818 0.5753 318.1045 351.251)" class="st47 st48">Awful</text>

    			<rect x="301.79" y="340.83" transform="matrix(0.8962 -0.4437 0.4437 0.8962 -131.3688 175.3492)" class="st49" width="14.41" height="55.1"/>
    		<text transform="matrix(0.4437 0.8962 -0.8962 0.4437 299.4857 355.6788)" class="st47 st48">Repelled</text>

    			<rect x="283.03" y="348.45" transform="matrix(0.9534 -0.3017 0.3017 0.9534 -99.9161 105.0874)" class="st49" width="14.41" height="55.1"/>
    		<text transform="matrix(0.3017 0.9534 -0.9534 0.3017 285.1045 369.3534)" class="st47 st48">Hurt</text>

    			<rect x="263.33" y="353.11" transform="matrix(0.9883 -0.1526 0.1526 0.9883 -54.9348 45.7555)" class="st49" width="14.41" height="55.1"/>
    		<text transform="matrix(0.1526 0.9883 -0.9883 0.1526 264.7687 362.2706)" class="st47 st48">Depressed</text>
    		<rect x="243.14" y="354.71" class="st49" width="14.41" height="55.1"/>
    		<text transform="matrix(0 1 -1 0 247.458 371.8062)" class="st47 st48">Guilty</text>
    	</g>
    	<g>

    			<rect x="202.62" y="373.14" transform="matrix(0.1526 -0.9883 0.9883 0.1526 -180.8468 549.765)" class="st49" width="55.1" height="14.41"/>
    		<text transform="matrix(0.1526 -0.9883 0.9883 0.1526 230.9397 394.3148)" class="st47 st48">Despair</text>

    			<rect x="182.96" y="368.58" transform="matrix(0.3017 -0.9534 0.9534 0.3017 -211.2792 463.1129)" class="st49" width="55.1" height="14.41"/>
    		<text transform="matrix(0.3017 -0.9534 0.9534 0.3017 207.4717 394.9709)" class="st47 st48">Vulnerable</text>

    			<rect x="164.22" y="361.08" transform="matrix(0.4437 -0.8962 0.8962 0.4437 -223.3656 376.7406)" class="st49" width="55.1" height="14.41"/>
    		<text transform="matrix(0.4437 -0.8962 0.8962 0.4437 189.0921 380.2121)" class="st47 st48">Lonely</text>

    			<rect x="146.85" y="350.81" transform="matrix(0.5753 -0.8179 0.8179 0.5753 -218.7652 294.7001)" class="st49" width="55.1" height="14.41"/>
    		<text transform="matrix(0.5753 -0.818 0.818 0.5753 166.0949 374.843)" class="st47 st48">Optimistic</text>

    			<rect x="131.25" y="338" transform="matrix(0.6934 -0.7206 0.7206 0.6934 -200.0495 220.2611)" class="st49" width="55.1" height="14.41"/>
    		<text transform="matrix(0.6934 -0.7206 0.7206 0.6934 150.4771 358.018)" class="st47 st48">Trusting</text>

    			<rect x="117.78" y="322.96" transform="matrix(0.7953 -0.6063 0.6063 0.7953 -170.4125 155.7091)" class="st49" width="55.1" height="14.41"/>
    		<text transform="matrix(0.7953 -0.6063 0.6063 0.7953 134.5211 342.0434)" class="st47 st48">Peaceful</text>

    			<rect x="106.77" y="306.04" transform="matrix(0.8785 -0.4778 0.4778 0.8785 -133.3388 102.2414)" class="st49" width="55.1" height="14.41"/>
    		<text transform="matrix(0.8785 -0.4778 0.4778 0.8785 121.608 323.4541)" class="st47 st48">Powerful</text>

    			<rect x="98.47" y="287.64" transform="matrix(0.9411 -0.3381 0.3381 0.9411 -92.2621 59.9685)" class="st49" width="55.1" height="14.41"/>
    		<text transform="matrix(0.9411 -0.3381 0.3381 0.9411 111.0657 303.2934)" class="st47 st48">Accepted</text>

    			<rect x="93.08" y="268.19" transform="matrix(0.9817 -0.1905 0.1905 0.9817 -50.2459 28.018)" class="st49" width="55.1" height="14.41"/>
    		<text transform="matrix(0.9817 -0.1905 0.1905 0.9817 110.6142 280.2857)" class="st47 st48">Proud</text>

    			<rect x="90.72" y="248.15" transform="matrix(0.9993 -0.0384 0.0384 0.9993 -9.7154 4.7284)" class="st49" width="55.1" height="14.41"/>
    		<text transform="matrix(0.9993 -0.0384 0.0384 0.9993 100.1171 258.9421)" class="st47 st48">Interested</text>

    			<rect x="111.79" y="207.63" transform="matrix(0.1146 -0.9934 0.9934 0.1146 -128.2703 326.4455)" class="st49" width="14.41" height="55.1"/>
    		<text transform="matrix(0.9934 0.1146 -0.1146 0.9934 104.5213 236.4209)" class="st47 st48">Content</text>

    			<rect x="115.59" y="187.81" transform="matrix(0.2649 -0.9643 0.9643 0.2649 -117.3963 276.7211)" class="st49" width="14.41" height="55.1"/>
    		<text transform="matrix(0.9643 0.2649 -0.2649 0.9643 109.9459 214.8242)" class="st47 st48">Playful</text>

    			<rect x="122.37" y="168.79" transform="matrix(0.409 -0.9125 0.9125 0.409 -102.5925 234.2878)" class="st49" width="14.41" height="55.1"/>
    		<text transform="matrix(0.9125 0.409 -0.409 0.9125 116.2941 193.561)" class="st47 st48">Excited</text>

    			<rect x="131.97" y="151.04" transform="matrix(0.5435 -0.8394 0.8394 0.5435 -86.3765 198.3589)" class="st49" width="14.41" height="55.1"/>
    		<text transform="matrix(0.8394 0.5435 -0.5435 0.8394 125.3121 173.0573)" class="st47 st48">Amazed</text>

    			<rect x="144.17" y="134.96" transform="matrix(0.6652 -0.7466 0.7466 0.6652 -70.6604 167.4234)" class="st49" width="14.41" height="55.1"/>
    		<text transform="matrix(0.7466 0.6652 -0.6652 0.7466 136.6022 153.2197)" class="st47 st48">Confused</text>

    			<rect x="158.68" y="120.93" transform="matrix(0.7714 -0.6363 0.6363 0.7714 -56.5633 139.5007)" class="st49" width="14.41" height="55.1"/>
    		<text transform="matrix(0.6363 0.7714 -0.7714 0.6363 154.5679 139.3043)" class="st47 st48">Startled</text>

    			<rect x="175.16" y="109.27" transform="matrix(0.8595 -0.5111 0.5111 0.8595 -44.3149 112.4391)" class="st49" width="14.41" height="55.1"/>
    		<text transform="matrix(0.5111 0.8595 -0.8595 0.5111 175.2185 130.4661)" class="st47 st48">Tired</text>

    			<rect x="193.23" y="100.28" transform="matrix(0.9274 -0.374 0.374 0.9274 -33.2599 84.2279)" class="st49" width="14.41" height="55.1"/>
    		<text transform="matrix(0.374 0.9275 -0.9275 0.374 191.7865 114.1153)" class="st47 st48">Stressed</text>

    			<rect x="212.46" y="94.14" transform="matrix(0.9737 -0.228 0.228 0.9737 -21.9608 53.2907)" class="st49" width="14.41" height="55.1"/>
    		<text transform="matrix(0.228 0.9737 -0.9737 0.228 214.809 113.6505)" class="st47 st48">Busy</text>

    			<rect x="232.4" y="91.01" transform="matrix(0.9971 -0.0767 0.0767 0.9971 -8.3899 18.7315)" class="st49" width="14.41" height="55.1"/>
    		<text transform="matrix(0.0767 0.9971 -0.9971 0.0767 235.9055 108.2207)" class="st47 st48">Bored</text>
    	</g>
    </g>
    <g>

    		<rect x="205.16" y="444.95" transform="matrix(0.0381 -0.9993 0.9993 0.0381 -219.5624 676.7983)" class="st49" width="73.23" height="15"/>
    	<text transform="matrix(0.0381 -0.9993 0.9993 0.0381 243.6681 469.5041)" class="st47 st48">Ashamed</text>

    		<rect x="189.69" y="443.73" transform="matrix(0.1145 -0.9934 0.9934 0.1145 -247.867 624.373)" class="st49" width="73.23" height="15"/>
    	<text transform="matrix(0.1145 -0.9934 0.9934 0.1145 226.753 470.0021)" class="st47 st48">Powerless</text>

    		<rect x="174.35" y="441.32" transform="matrix(0.1902 -0.9817 0.9817 0.1902 -269.7858 570.5694)" class="st49" width="73.23" height="15"/>
    	<text transform="matrix(0.1902 -0.9817 0.9817 0.1902 211.8391 457.778)" class="st47 st48">Grief</text>

    		<rect x="159.25" y="437.75" transform="matrix(0.2648 -0.9643 0.9643 0.2648 -285.3558 516.2224)" class="st49" width="73.23" height="15"/>
    	<text transform="matrix(0.2648 -0.9643 0.9643 0.2648 195.062 457.8154)" class="st47 st48">Fragile</text>

    		<rect x="144.46" y="433.03" transform="matrix(0.3378 -0.9412 0.9412 0.3378 -294.7285 462.1387)" class="st49" width="73.23" height="15"/>
    	<text transform="matrix(0.3378 -0.9412 0.9412 0.3378 177.1664 459.3199)" class="st47 st48">Victimized</text>

    		<rect x="130.08" y="427.2" transform="matrix(0.4089 -0.9126 0.9126 0.4089 -298.1632 409.0807)" class="st49" width="73.23" height="15"/>
    	<text transform="matrix(0.4089 -0.9126 0.9126 0.4089 160.6439 454.4162)" class="st47 st48">Abandoned</text>

    		<rect x="116.19" y="420.28" transform="matrix(0.4775 -0.8786 0.8786 0.4775 -296.0186 357.7518)" class="st49" width="73.23" height="15"/>
    	<text transform="matrix(0.4775 -0.8786 0.8786 0.4775 148.1957 441.7358)" class="st47 st48">Isolated</text>

    		<rect x="102.87" y="412.32" transform="matrix(0.5434 -0.8395 0.8395 0.5434 -288.7413 308.7825)" class="st49" width="73.23" height="15"/>
    	<text transform="matrix(0.5434 -0.8395 0.8395 0.5434 133.7957 433.443)" class="st47 st48">Inspired</text>

    		<rect x="90.19" y="403.36" transform="matrix(0.6061 -0.7954 0.7954 0.6061 -276.8534 262.7195)" class="st49" width="73.23" height="15"/>
    	<text transform="matrix(0.6061 -0.7954 0.7954 0.6061 120.2423 423.744)" class="st47 st48">Hopeful</text>

    		<rect x="78.24" y="393.46" transform="matrix(0.6652 -0.7467 0.7467 0.6652 -260.9377 220.0163)" class="st49" width="73.23" height="15"/>
    	<text transform="matrix(0.6652 -0.7467 0.7467 0.6652 106.802 413.9602)" class="st47 st48">Intimate</text>

    		<rect x="67.08" y="382.67" transform="matrix(0.7204 -0.6936 0.6936 0.7204 -241.623 181.026)" class="st49" width="73.23" height="15"/>
    	<text transform="matrix(0.7204 -0.6936 0.6936 0.7204 93.5398 403.5482)" class="st47 st48">Sensitlve</text>

    		<rect x="56.78" y="371.06" transform="matrix(0.7713 -0.6364 0.6364 0.7713 -219.5672 145.9973)" class="st49" width="73.23" height="15"/>
    	<text transform="matrix(0.7713 -0.6364 0.6364 0.7713 82.779 390.6204)" class="st47 st48">Thankful</text>

    		<rect x="47.4" y="358.7" transform="matrix(0.8178 -0.5755 0.5755 0.8178 -195.4408 115.0721)" class="st49" width="73.23" height="15"/>
    	<text transform="matrix(0.8178 -0.5755 0.5755 0.8178 75.6184 375.2159)" class="st47 st48">Loving</text>

    		<rect x="38.99" y="345.65" transform="matrix(0.8595 -0.5112 0.5112 0.8595 -169.9107 88.2864)" class="st49" width="73.23" height="15"/>
    	<text transform="matrix(0.8595 -0.5112 0.5112 0.8595 64.2415 362.9519)" class="st47 st48">Creative</text>

    		<rect x="31.61" y="332" transform="matrix(0.8961 -0.4439 0.4439 0.8961 -143.6234 65.5734)" class="st49" width="73.23" height="15"/>
    	<text transform="matrix(0.8961 -0.4439 0.4439 0.8961 49.9854 351.4082)" class="st47 st48">Courageous</text>

    		<rect x="25.29" y="317.82" transform="matrix(0.9274 -0.374 0.374 0.9274 -117.1901 46.7693)" class="st49" width="73.23" height="15"/>
    	<text transform="matrix(0.9274 -0.374 0.374 0.9274 51.3926 332.3471)" class="st47 st48">Valued</text>

    		<rect x="20.08" y="303.2" transform="matrix(0.9533 -0.302 0.302 0.9533 -91.172 31.6211)" class="st49" width="73.23" height="15"/>
    	<text transform="matrix(0.9533 -0.302 0.302 0.9533 39.2509 318.8956)" class="st47 st48">Respected</text>

    		<rect x="16" y="288.23" transform="matrix(0.9736 -0.2281 0.2281 0.9736 -66.0676 19.7964)" class="st49" width="73.23" height="15"/>
    	<text transform="matrix(0.9736 -0.2281 0.2281 0.9736 36.1328 302.3035)" class="st47 st48">Confident</text>

    		<rect x="13.08" y="272.99" transform="matrix(0.9882 -0.1529 0.1529 0.9882 -42.3019 10.8957)" class="st49" width="73.23" height="15"/>
    	<text transform="matrix(0.9882 -0.1529 0.1529 0.9882 30.3734 286.0922)" class="st47 st48">Successful</text>

    		<rect x="11.33" y="257.56" transform="matrix(0.997 -0.0768 0.0768 0.997 -20.2169 4.4654)" class="st49" width="73.23" height="15"/>
    	<text transform="matrix(0.9971 -0.0768 0.0768 0.9971 29.5238 269.1502)" class="st47 st48">Inquisitive</text>
    	<rect x="10.77" y="242.06" class="st49" width="73.23" height="14.99"/>
    	<text transform="matrix(1 -2.600000e-04 2.600000e-04 1 33.5465 252.1517)" class="st47 st48">Curious</text>

    		<rect x="40.51" y="197.43" transform="matrix(0.0763 -0.9971 0.9971 0.0763 -189.0125 264.0647)" class="st49" width="15" height="73.23"/>
    	<text transform="matrix(0.9971 0.0763 -0.0763 0.9971 36.6076 235.8393)" class="st47 st48">Joyful</text>

    		<rect x="42.33" y="182.02" transform="matrix(0.1524 -0.9883 0.9883 0.1524 -173.8432 234.5607)" class="st49" width="15" height="73.23"/>
    	<text transform="matrix(0.9883 0.1524 -0.1524 0.9883 41.6143 219.9884)" class="st47 st48">Free</text>

    		<rect x="45.32" y="166.79" transform="matrix(0.2276 -0.9738 0.9738 0.2276 -157.2675 208.5392)" class="st49" width="15" height="73.23"/>
    	<text transform="matrix(0.9738 0.2276 -0.2276 0.9738 37.6131 202.5093)" class="st47 st48">Aroused</text>

    		<rect x="49.46" y="151.83" transform="matrix(0.3015 -0.9535 0.9535 0.3015 -139.8877 185.9479)" class="st49" width="15" height="73.23"/>
    	<text transform="matrix(0.9535 0.3015 -0.3015 0.9535 43.6703 186.9827)" class="st47 st48">Cheeky</text>

    		<rect x="54.74" y="137.23" transform="matrix(0.3736 -0.9276 0.9276 0.3736 -122.2737 166.6402)" class="st49" width="15" height="73.23"/>
    	<text transform="matrix(0.9276 0.3735 -0.3735 0.9276 45.5286 169.9557)" class="st47 st48">Energetic</text>

    		<rect x="61.12" y="123.08" transform="matrix(0.4435 -0.8963 0.8963 0.4435 -104.9485 150.3817)" class="st49" width="15" height="73.23"/>
    	<text transform="matrix(0.8963 0.4435 -0.4435 0.8963 58.3149 157.4664)" class="st47 st48">Eager</text>

    		<rect x="68.56" y="109.47" transform="matrix(0.5108 -0.8597 0.8597 0.5108 -88.3757 136.8604)" class="st49" width="15" height="73.23"/>
    	<text transform="matrix(0.8597 0.5108 -0.5108 0.8597 68.1058 144.383)" class="st47 st48">Awe</text>

    		<rect x="77.03" y="96.46" transform="matrix(0.5751 -0.8181 0.8181 0.5751 -72.9479 125.6977)" class="st49" width="15" height="73.23"/>
    	<text transform="matrix(0.8181 0.5751 -0.5751 0.8181 66.359 123.4712)" class="st47 st48">Astonished</text>

    		<rect x="86.46" y="84.13" transform="matrix(0.636 -0.7717 0.7717 0.636 -58.9775 116.4613)" class="st49" width="15" height="73.23"/>
    	<text transform="matrix(0.7717 0.636 -0.636 0.7717 78.4978 111.3608)" class="st47 st48">Perplexed</text>

    		<rect x="96.82" y="72.57" transform="matrix(0.6932 -0.7207 0.7207 0.6932 -46.69 108.6796)" class="st49" width="15" height="73.23"/>
    	<text transform="matrix(0.7207 0.6932 -0.6932 0.7207 85.8754 95.0059)" class="st47 st48">Disillusioned</text>

    		<rect x="108.02" y="61.83" transform="matrix(0.7463 -0.6656 0.6656 0.7463 -36.2189 101.8569)" class="st49" width="15" height="73.23"/>
    	<text transform="matrix(0.6656 0.7463 -0.7463 0.6656 101.6805 86.8944)" class="st47 st48">Dismayed</text>

    		<rect x="120.02" y="51.98" transform="matrix(0.7951 -0.6065 0.6065 0.7951 -27.6039 95.4888)" class="st49" width="15" height="73.23"/>
    	<text transform="matrix(0.6065 0.7951 -0.7951 0.6065 116.0369 77.7381)" class="st47 st48">Shocked</text>

    		<rect x="132.73" y="43.08" transform="matrix(0.8392 -0.5438 0.5438 0.8392 -20.7907 89.0776)" class="st49" width="15" height="73.23"/>
    	<text transform="matrix(0.5438 0.8392 -0.8392 0.5438 128.6382 66.4885)" class="st47 st48">Unfocued</text>

    		<rect x="146.09" y="35.18" transform="matrix(0.8784 -0.478 0.478 0.8784 -15.6341 82.1486)" class="st49" width="15" height="73.23"/>
    	<text transform="matrix(0.478 0.8784 -0.8784 0.478 145.5413 62.3918)" class="st47 st48">Sleepy</text>

    		<rect x="160.01" y="28.32" transform="matrix(0.9124 -0.4094 0.4094 0.9124 -11.9032 74.2641)" class="st49" width="15" height="73.23"/>
    	<text transform="matrix(0.4094 0.9124 -0.9124 0.4094 154.98 43.4473)" class="st47 st48">Out of control</text>

    		<rect x="174.42" y="22.55" transform="matrix(0.941 -0.3383 0.3383 0.941 -9.2887 65.0376)" class="st49" width="15" height="73.23"/>
    	<text transform="matrix(0.3383 0.941 -0.941 0.3383 171.1474 36.9688)" class="st47 st48">Overwhelmed</text>

    		<rect x="189.23" y="17.9" transform="matrix(0.9642 -0.2653 0.2653 0.9642 -7.4127 54.146)" class="st49" width="15" height="73.23"/>
    	<text transform="matrix(0.2653 0.9642 -0.9642 0.2653 190.6765 42.0565)" class="st47 st48">Rushed</text>

    		<rect x="204.35" y="14.39" transform="matrix(0.9816 -0.1907 0.1907 0.9816 -5.8398 41.3406)" class="st49" width="15" height="73.23"/>
    	<text transform="matrix(0.1907 0.9816 -0.9816 0.1907 205.8726 33.5628)" class="st47 st48">Pressured</text>

    		<rect x="219.69" y="12.06" transform="matrix(0.9934 -0.115 0.115 0.9934 -4.0905 26.4554)" class="st49" width="15" height="73.23"/>
    	<text transform="matrix(0.115 0.9934 -0.9934 0.115 222.674 31.7544)" class="st47 st48">Apathetic</text>

    		<rect x="235.17" y="10.9" transform="matrix(0.9993 -0.0386 0.0386 0.9993 -1.6552 9.4145)" class="st49" width="15" height="73.23"/>
    	<text transform="matrix(0.0386 0.9992 -0.9992 0.0386 239.3683 28.8555)" class="st47 st48">Indifferent</text>

    		<rect x="249.8" y="415.87" transform="matrix(0.9993 -0.0385 0.0385 0.9993 -17.2188 10.2345)" class="st49" width="15" height="73.23"/>
    	<text transform="matrix(0.0385 0.9993 -0.9993 0.0385 253.8588 431.8383)" class="st47 st48">Remorseful</text>

    		<rect x="265.27" y="414.72" transform="matrix(0.9934 -0.1149 0.1149 0.9934 -50.0307 34.3148)" class="st49" width="15" height="73.23"/>
    	<text transform="matrix(0.1148 0.9934 -0.9934 0.1148 268.9046 440.243)" class="st47 st48">Empty</text>

    		<rect x="280.62" y="412.38" transform="matrix(0.9817 -0.1906 0.1906 0.9817 -80.2783 63.1284)" class="st49" width="15" height="73.23"/>
    	<text transform="matrix(0.1905 0.9817 -0.9817 0.1905 283.0833 436.6808)" class="st47 st48">Inferior</text>

    		<rect x="295.74" y="408.88" transform="matrix(0.9642 -0.2651 0.2651 0.9642 -107.2643 96.343)" class="st49" width="15" height="73.23"/>
    	<text transform="matrix(0.2651 0.9642 -0.9642 0.2651 294.4001 423.2887)" class="st47 st48">Disappointed</text>

    		<rect x="310.55" y="404.23" transform="matrix(0.9411 -0.3382 0.3382 0.9411 -130.3415 133.523)" class="st49" width="15" height="73.23"/>
    	<text transform="matrix(0.3382 0.9411 -0.9411 0.3382 308.2885 421.3091)" class="st47 st48">Embarrased</text>

    		<rect x="324.96" y="398.46" transform="matrix(0.9124 -0.4092 0.4092 0.9124 -148.9281 174.1376)" class="st49" width="15" height="73.23"/>
    	<text transform="matrix(0.4092 0.9124 -0.9124 0.4092 323.812 422.2243)" class="st47 st48">Hesitant</text>

    		<rect x="338.88" y="391.61" transform="matrix(0.8784 -0.4778 0.4778 0.8784 -162.5214 217.5715)" class="st49" width="15" height="73.23"/>
    	<text transform="matrix(0.4779 0.8784 -0.8784 0.4779 336.5864 415.6624)" class="st47 st48">Horrified</text>

    		<rect x="352.24" y="383.71" transform="matrix(0.8393 -0.5437 0.5437 0.8393 -170.7105 263.1371)" class="st49" width="15" height="73.23"/>
    	<text transform="matrix(0.5437 0.8393 -0.8393 0.5437 347.0172 405.5265)" class="st47 st48">Detestable</text>

    		<rect x="364.96" y="374.81" transform="matrix(0.7952 -0.6063 0.6063 0.7952 -173.1859 310.0888)" class="st49" width="15" height="73.23"/>
    	<text transform="matrix(0.6063 0.7952 -0.7952 0.6063 358.5645 397.5758)" class="st47 st48">Nauseated</text>

    		<rect x="376.95" y="364.96" transform="matrix(0.7465 -0.6654 0.6654 0.7465 -169.7477 357.6388)" class="st49" width="15" height="73.23"/>
    	<text transform="matrix(0.6654 0.7465 -0.7465 0.6654 371.9543 391.5244)" class="st47 st48">Revolted</text>

    		<rect x="388.16" y="354.23" transform="matrix(0.6933 -0.7206 0.7206 0.6933 -160.3112 404.9731)" class="st49" width="15" height="73.23"/>
    	<text transform="matrix(0.7206 0.6933 -0.6933 0.7206 382.5206 381.7744)" class="st47 st48">Appalled</text>

    		<rect x="398.51" y="342.66" transform="matrix(0.6361 -0.7716 0.7716 0.6361 -144.9098 451.2697)" class="st49" width="15" height="73.23"/>
    	<text transform="matrix(0.7716 0.6362 -0.6362 0.7716 387.0789 367.0411)" class="st47 st48">Embarassed</text>

    		<rect x="407.95" y="330.34" transform="matrix(0.5752 -0.818 0.818 0.5752 -123.695 495.7152)" class="st49" width="15" height="73.23"/>
    	<text transform="matrix(0.818 0.5752 -0.5752 0.818 394.6245 355.4961)" class="st47 st48">Judgemental</text>

    		<rect x="416.42" y="317.33" transform="matrix(0.5109 -0.8596 0.8596 0.5109 -96.9346 537.5232)" class="st49" width="15" height="73.23"/>
    	<text transform="matrix(0.8596 0.5109 -0.5109 0.8596 405.7195 346.1544)" class="st47 st48">Dismissive</text>

    		<rect x="423.87" y="303.72" transform="matrix(0.4436 -0.8962 0.8962 0.4436 -65.0074 575.9505)" class="st49" width="15" height="73.23"/>
    	<text transform="matrix(0.8962 0.4436 -0.4436 0.8962 415.1722 335.2621)" class="st47 st48">Skeptical</text>

    		<rect x="430.25" y="289.57" transform="matrix(0.3737 -0.9275 0.9275 0.3737 -28.396 610.3135)" class="st49" width="15" height="73.23"/>
    	<text transform="matrix(0.9275 0.3737 -0.3737 0.9275 426.7045 324.4826)" class="st47 st48">Numb</text>

    		<rect x="435.53" y="274.97" transform="matrix(0.3016 -0.9534 0.9534 0.3016 12.3232 640.0031)" class="st49" width="15" height="73.23"/>
    	<text transform="matrix(0.9534 0.3016 -0.3016 0.9534 423.8234 308.2666)" class="st47 st48">Withdrawn</text>

    		<rect x="439.68" y="260.02" transform="matrix(0.2278 -0.9737 0.9737 0.2278 56.4915 664.4973)" class="st49" width="15" height="73.23"/>
    	<text transform="matrix(0.9737 0.2278 -0.2278 0.9737 431.1703 295.5498)" class="st47 st48">Annoyed</text>

    		<rect x="442.67" y="244.79" transform="matrix(0.1526 -0.9883 0.9883 0.1526 103.382 683.3727)" class="st49" width="15" height="73.23"/>
    	<text transform="matrix(0.9883 0.1525 -0.1525 0.9883 432.5175 281.3825)" class="st47 st48">Infuriated</text>

    		<rect x="444.48" y="229.37" transform="matrix(0.0765 -0.9971 0.9971 0.0765 152.2146 696.3138)" class="st49" width="15" height="73.23"/>
    	<text transform="matrix(0.9971 0.0765 -0.0765 0.9971 439.0582 267.563)" class="st47 st48">Hostile</text>
    	<rect x="416" y="242.99" class="st49" width="73.23" height="15"/>
    	<text transform="matrix(1 -9.000000e-05 9.000000e-05 1 435.6123 253.079)" class="st47 st48">Provoked</text>

    		<rect x="415.44" y="227.47" transform="matrix(0.9971 -0.0766 0.0766 0.9971 -16.6771 35.333)" class="st49" width="73.23" height="15"/>
    	<text transform="matrix(0.9971 -0.0766 0.0766 0.9971 438.095 238.6366)" class="st47 st48">Jealous</text>

    		<rect x="413.7" y="212.05" transform="matrix(0.9883 -0.1527 0.1527 0.9883 -28.2482 71.3509)" class="st49" width="73.23" height="15"/>
    	<text transform="matrix(0.9883 -0.1527 0.1527 0.9883 437.2635 224.2302)" class="st47 st48">Furious</text>

    		<rect x="410.78" y="196.81" transform="matrix(0.9737 -0.2279 0.2279 0.9737 -34.7904 107.3508)" class="st49" width="73.23" height="15"/>
    	<text transform="matrix(0.9737 -0.2279 0.2279 0.9737 433.5699 210.2577)" class="st47 st48">Violated</text>

    		<rect x="406.7" y="181.83" transform="matrix(0.9534 -0.3018 0.3018 0.9534 -36.4678 142.6157)" class="st49" width="73.23" height="15"/>
    	<text transform="matrix(0.9534 -0.3018 0.3018 0.9534 427.7993 197.0184)" class="st47 st48">Indignant</text>

    		<rect x="401.49" y="167.21" transform="matrix(0.9275 -0.3739 0.3739 0.9275 -33.5478 176.4695)" class="st49" width="73.23" height="15"/>
    	<text transform="matrix(0.9275 -0.3739 0.3739 0.9275 423.5174 183.4202)" class="st47 st48">Ridiculed</text>

    		<rect x="395.18" y="153.03" transform="matrix(0.8961 -0.4438 0.4438 0.8961 -26.3935 208.2923)" class="st49" width="73.23" height="15"/>
    	<text transform="matrix(0.8961 -0.4438 0.4438 0.8961 411.836 173.3776)" class="st47 st48">Disrespected</text>

    		<rect x="387.8" y="139.38" transform="matrix(0.8595 -0.5111 0.5111 0.8595 -15.4527 237.5338)" class="st49" width="73.23" height="15"/>
    	<text transform="matrix(0.8595 -0.5111 0.5111 0.8595 410.8619 157.9789)" class="st47 st48">Resentful</text>

    		<rect x="379.39" y="126.33" transform="matrix(0.8179 -0.5754 0.5754 0.8179 -1.2465 263.7253)" class="st49" width="73.23" height="15"/>
    	<text transform="matrix(0.8179 -0.5754 0.5754 0.8179 404.3525 145.1776)" class="st47 st48">Betrayed</text>

    		<rect x="370.01" y="113.97" transform="matrix(0.7715 -0.6363 0.6363 0.7715 15.6452 286.4889)" class="st49" width="73.23" height="15"/>
    	<text transform="matrix(0.7715 -0.6363 0.6363 0.7715 396.4267 133.2434)" class="st47 st48">Exposed</text>

    		<rect x="359.71" y="102.35" transform="matrix(0.7205 -0.6935 0.6935 0.7205 34.598 305.5454)" class="st49" width="73.23" height="15"/>
    	<text transform="matrix(0.7205 -0.6935 0.6935 0.7205 387.3002 122.0735)" class="st47 st48">Nervous</text>

    		<rect x="348.56" y="91.56" transform="matrix(0.6653 -0.7466 0.7466 0.6653 54.9596 320.7192)" class="st49" width="73.23" height="15"/>
    	<text transform="matrix(0.6653 -0.7466 0.7466 0.6653 373.4861 116.0748)" class="st47 st48">Persecuted</text>

    		<rect x="336.61" y="81.66" transform="matrix(0.6062 -0.7953 0.7953 0.6062 76.0658 331.9408)" class="st49" width="73.23" height="15"/>
    	<text transform="matrix(0.6062 -0.7953 0.7953 0.6062 365.2798 103.7632)" class="st47 st48">Excluded</text>

    		<rect x="323.93" y="72.7" transform="matrix(0.5435 -0.8394 0.8394 0.5435 97.2575 339.2469)" class="st49" width="73.23" height="15"/>
    	<text transform="matrix(0.5435 -0.8394 0.8394 0.5435 350.494 100.4492)" class="st47 st48">Insignificant</text>

    		<rect x="310.61" y="64.74" transform="matrix(0.4777 -0.8785 0.8785 0.4777 117.8972 342.7776)" class="st49" width="73.23" height="15"/>
    	<text transform="matrix(0.4777 -0.8785 0.8785 0.4777 340.8342 89.5045)" class="st47 st48">Worthless</text>

    		<rect x="296.72" y="57.82" transform="matrix(0.409 -0.9125 0.9125 0.409 137.3843 342.7714)" class="st49" width="73.23" height="15"/>
    	<text transform="matrix(0.4091 -0.9125 0.9125 0.4091 330.3343 78.2455)" class="st47 st48">Inferior</text>

    		<rect x="282.34" y="51.98" transform="matrix(0.338 -0.9411 0.9411 0.338 155.1702 339.5575)" class="st49" width="73.23" height="15"/>
    	<text transform="matrix(0.338 -0.9412 0.9412 0.338 314.5925 79.3948)" class="st47 st48">Inadequate</text>

    		<rect x="267.55" y="47.26" transform="matrix(0.265 -0.9643 0.9643 0.265 170.7718 333.5466)" class="st49" width="73.23" height="15"/>
    	<text transform="matrix(0.265 -0.9643 0.9643 0.265 302.9613 68.9853)" class="st47 st48">Worried</text>

    		<rect x="252.45" y="43.69" transform="matrix(0.1904 -0.9817 0.9817 0.1904 183.7829 325.2189)" class="st49" width="73.23" height="15"/>
    	<text transform="matrix(0.1904 -0.9817 0.9817 0.1904 286.9452 75.7526)" class="st47 st48">Overwhelmed</text>

    		<rect x="237.12" y="41.28" transform="matrix(0.1147 -0.9934 0.9934 0.1147 193.8842 315.1112)" class="st49" width="73.23" height="15"/>
    	<text transform="matrix(0.1147 -0.9934 0.9934 0.1147 274.0363 68.3795)" class="st47 st48">Frightened</text>

    		<rect x="221.64" y="40.05" transform="matrix(0.0383 -0.9993 0.9993 0.0383 200.8506 303.8017)" class="st49" width="73.23" height="15"/>
    	<text transform="matrix(0.0383 -0.9993 0.9993 0.0383 260.2922 63.2433)" class="st47 st48">Helpless</text>
    </g>
    </svg>